<?xml version="1.0" standalone="no"?>
<!DOCTYPE svg PUBLIC "-//W3C//DTD SVG 20010904//EN"
 "http://www.w3.org/TR/2001/REC-SVG-20010904/DTD/svg10.dtd">
<svg version="1.0" xmlns="http://www.w3.org/2000/svg"
 width="512.000000pt" height="512.000000pt" viewBox="0 0 512.000000 512.000000"
 preserveAspectRatio="xMidYMid meet">
<metadata>
Created by potrace 1.16, written by Peter Selinger 2001-2019
</metadata>
<g transform="translate(0.000000,512.000000) scale(0.100000,-0.100000)"
fill="#000000" stroke="none">
<path d="M1385 5096 c-61 -31 -273 -242 -303 -302 -31 -62 -37 -131 -17 -200
l16 -59 987 -987 987 -988 -987 -988 -987 -987 -16 -59 c-21 -73 -14 -142 22
-208 39 -72 256 -280 315 -303 59 -22 175 -17 228 9 19 10 565 547 1212 1195
1294 1293 1222 1214 1222 1341 0 127 72 48 -1222 1341 -647 648 -1193 1185
-1212 1195 -22 11 -65 19 -115 22 -71 3 -86 0 -130 -22z"/>
</g>
</svg>
