<?xml version="1.0" standalone="no"?>
<!DOCTYPE svg PUBLIC "-//W3C//DTD SVG 20010904//EN"
 "http://www.w3.org/TR/2001/REC-SVG-20010904/DTD/svg10.dtd">
<svg version="1.0" xmlns="http://www.w3.org/2000/svg"
 width="512.000000pt" height="512.000000pt" viewBox="0 0 512.000000 512.000000"
 preserveAspectRatio="xMidYMid meet">
<metadata>
Created by potrace 1.16, written by Peter Selinger 2001-2019
</metadata>
<g transform="translate(0.000000,512.000000) scale(0.100000,-0.100000)"
fill="#000000" stroke="none">
<path d="M690 4132 c-147 -38 -256 -140 -313 -291 -22 -56 -22 -59 -25 -1221
-2 -769 1 -1192 7 -1245 21 -160 115 -290 258 -358 l68 -32 1850 -3 c1836 -2
1851 -2 1917 18 120 36 229 140 284 270 18 43 19 92 22 1265 3 1364 7 1288
-67 1403 -69 106 -177 179 -300 202 -35 7 -666 10 -1845 9 -1652 0 -1796 -1
-1856 -17z m3330 -509 c-1029 -1039 -1432 -1441 -1449 -1446 -10 -2 -32 2 -47
11 -16 9 -407 395 -869 859 l-840 843 1735 0 1735 0 -265 -267z m478 -1071
l-3 -1189 -27 -39 c-15 -22 -42 -48 -59 -58 l-31 -19 -597 597 -596 596 650
650 c357 357 653 650 658 650 4 0 6 -535 5 -1188z m-3173 -702 c-324 -324
-596 -590 -604 -590 -26 0 -88 76 -100 123 -12 50 -17 2300 -5 2332 5 13 158
-134 653 -629 l646 -646 -590 -590z m977 204 c215 -215 217 -217 253 -211 47
8 99 52 287 245 l153 159 522 -506 522 -506 -745 -3 c-409 -1 -1080 -1 -1491
0 l-748 3 510 516 c281 284 512 517 515 518 2 0 102 -96 222 -215z"/>
</g>
</svg>
