<svg xmlns="http://www.w3.org/2000/svg">
	<symbol id="logo" viewBox="0 0 190 90">
		<g>
			<g clip-path="url(#clip0)">
			<path d="M81.24 3.36264C78.09 4.85605 75.87 6.46814 75.06 7.28902C68.26 14.2121 66.1 18.4945 66 24.8242C66 30.0659 66.9 31.3517 77.1 42.2308C84.6 50.044 86.9 55.1868 85.3 59.9341C84.3 63 77.7 68.4396 69.2 73.2857C66.3 74.8681 63.7 76.8462 63.4 77.6374C62.6 79.5165 70.7 89.5055 85.2 89.8022C99.9 90.0989 100 90 105.9 87.033C117.5 81.2967 122.2 75.3626 123.5 64.978C124.6 55.3846 123 51.1319 114.3 41.5385C105.5 31.6484 103.7 28.6813 103.7 23.3407C103.7 20.1758 104.3 18.8901 106.9 16.6154C108.6 15.033 112.1 13.2527 114.5 12.6593C116.9 11.967 119.2 10.8791 119.4 10.1868C118.96 6.12198 118.54 4.54945 117.84 3.55055C117.84 3.55055 117.35 2.91759 116.71 2.39341C113.15 -0.52417 102.8 -0.747253 99.5 -0.5C85.99 0.548355 84.3 1.90879 81.24 3.36264Z" fill="#FDA44A"/>
			<path d="M130 36.3956C130 48.3626 130.3 62.1099 130.6 67.0549L131.3 76.1538H140.1H149V63.8901C149 57.0659 149.4 51.3297 150 50.9341C150.5 50.6374 152.4 51.033 154.2 51.7253C156.9 52.9121 158.6 55.1868 163.8 64.6813L170.1 76.1538H180.9H191.7L186.7 66.5604C181.4 56.1758 179.1 53.1099 174.7 50.4396L171.8 48.6593L175.3 47.5714C180.5 45.8901 185.6 39.8571 186.4 34.5165C187.6 26.5055 184.3 19.6813 177.7 16.7143C174 15.1319 170.9 14.8352 151.8 14.8352H130V36.3956ZM164.8 28.2857C167.4 30.0659 167.8 34.7143 165.5 36.989C163.8 38.6703 157 39.8571 152.4 39.3626C149.6 39.0659 149.5 38.8681 149.2 32.8352L148.9 26.7033H155.7C160.3 26.7033 163.3 27.1978 164.8 28.2857Z" fill="#333333"/>
			<path d="M3.49999 21.4615C2.59999 24.6264 1.69999 27.989 1.39999 28.8791C0.899988 30.3626 1.99999 30.6593 10.7 30.8571L20.5 31.1538L20.8 54.0989L21 77.1429H30.5H40V53.9011V30.6593H49.5H59V23.2418V15.8242H32.1H5.09999L3.49999 21.4615Z" fill="#333333"/>
			<path d="M113.449 4.76853L107.6 5.53177L107.849 7.39473L113.698 6.63149L113.449 4.76853Z" fill="white"/>
			<path d="M102.82 6.1049L97.2545 8.04218L97.8853 9.81475L103.451 7.87747L102.82 6.1049Z" fill="white"/>
			<path d="M92.8285 9.68717L87.9876 13.0226L89.0736 14.5644L93.9146 11.229L92.8285 9.68717Z" fill="white"/>
			<path d="M85.2672 15.9085L82.3172 20.9618L83.9626 21.9014L86.9126 16.8481L85.2672 15.9085Z" fill="white"/>
			<path d="M83.2545 23.5886L81.4263 24.1003L83.0329 29.7148L84.8611 29.2032L83.2545 23.5886Z" fill="white"/>
			<path d="M86.564 32.223L85.0786 33.3946L88.7573 37.9565L90.2427 36.7849L86.564 32.223Z" fill="white"/>
			<path d="M92.6528 39.1561L91.0939 40.2302L94.4663 45.018L96.0252 43.9439L92.6528 39.1561Z" fill="white"/>
			<path d="M98.5774 47.1243L97.0919 48.2959L100.771 52.8578L102.256 51.6862L98.5774 47.1243Z" fill="white"/>
			<path d="M105.499 55.0937L103.615 55.3395L104.387 61.1245L106.271 60.8787L105.499 55.0937Z" fill="white"/>
			<path d="M104.221 65.5031L102.173 70.9753L103.955 71.6275L106.003 66.1553L104.221 65.5031Z" fill="white"/>
			<path d="M99.1424 73.1622L94.3015 76.4976L95.3875 78.0394L100.228 74.704L99.1424 73.1622Z" fill="white"/>
			<path d="M88.4217 80.491L83.5807 83.8264L84.6668 85.3682L89.5077 82.0328L88.4217 80.491Z" fill="white"/>
			<path d="M80.0413 86.3141L78.0665 87.6747L79 89L80.9748 87.6394L80.0413 86.3141Z" fill="white"/>
			</g>
			<defs>
			<clipPath id="clip0">
			<path d="M0 0H192V40C192 63.5702 192 75.3553 184.678 82.6777C177.355 90 165.57 90 142 90H50C26.4298 90 14.6447 90 7.32233 82.6777C0 75.3553 0 63.5702 0 40V0Z" fill="white"/>
			</clipPath>
			</defs>
		</g>
	</symbol>


	<symbol id="phone" viewBox="0 0 30 50">
		<g>
			<path d="M26.5119 0H3.4881C1.56994 0 0 1.51857 0 3.37714V46.6214C0 48.48 1.56994 50 3.4881 50H26.5119C28.4301 50 30 48.4829 30 46.6229V3.37714C30 1.51857 28.4301 0 26.5119 0ZM11.3171 2.43429H18.6829C18.916 2.43429 19.1049 2.61714 19.1049 2.84429C19.1049 3.07 18.916 3.25286 18.6829 3.25286H11.3171C11.084 3.25286 10.8951 3.07 10.8951 2.84429C10.8951 2.61714 11.084 2.43429 11.3171 2.43429ZM15 48.3114C14.0365 48.3114 13.256 47.5557 13.256 46.6214C13.256 45.6871 14.0365 44.9328 15 44.9328C15.9635 44.9328 16.7441 45.6871 16.7441 46.6214C16.7441 47.5557 15.9635 48.3114 15 48.3114ZM27.5728 43.75H2.42721V5.35571H27.5728V43.75Z" fill="#FDA44A"/>
		</g>
	</symbol>

	
	<symbol id="mail" viewBox="0 0 70 50">
		<g>
			<path d="M5.37755 0.271267C3.04311 0.871008 1.31213 2.48084 0.406935 4.86402C0.0575627 5.74785 0.0575627 5.7952 0.00992108 24.1347C-0.02184 36.2715 0.0258016 42.9476 0.121085 43.7841C0.454577 46.3093 1.94735 48.361 4.21827 49.4343L5.29815 49.9393L34.6772 49.9867C63.8339 50.0182 64.0721 50.0182 65.1202 49.7026C67.0259 49.1344 68.7568 47.493 69.6303 45.4412C69.9161 44.7626 69.932 43.9892 69.9796 25.4762C70.0273 3.94863 70.0908 5.14811 68.9156 3.3331C67.8199 1.66014 66.1048 0.508009 64.1515 0.145008C63.5957 0.0345295 53.575 -0.0128186 34.8519 0.00296402C8.61718 0.00296402 6.33038 0.0187443 5.37755 0.271267ZM58.2598 8.30464C41.9187 24.7028 35.5188 31.0475 35.2489 31.1264C35.0901 31.1579 34.7407 31.0948 34.5025 30.9528C34.2484 30.8107 28.0391 24.7186 20.7023 17.3955L7.36262 4.09067H34.9154H62.4681L58.2598 8.30464ZM65.8507 25.2079L65.8031 43.9735L65.3743 44.589C65.1361 44.9362 64.7073 45.3466 64.4373 45.5044L63.945 45.8042L54.4643 36.382L44.9995 26.9755L55.3219 16.7168C60.9912 11.0824 65.6919 6.45807 65.7713 6.45807C65.8348 6.45807 65.8666 14.9018 65.8507 25.2079ZM15.4617 36.2873C10.3164 41.4009 5.99689 45.5991 5.86985 45.5991C5.45695 45.5991 4.47236 44.3996 4.28179 43.6578C4.09122 42.8687 4.01182 7.35768 4.20239 6.85264C4.28179 6.64746 6.71152 8.96752 14.5724 16.7799L24.8312 26.9755L15.4617 36.2873ZM30.977 33.0676C34.3913 36.4609 34.4231 36.4925 34.9948 36.3978C35.7412 36.2715 36.567 35.5771 39.5525 32.531L41.9822 30.0216L50.2719 38.0076L58.5615 45.9936L46.7305 46.041C40.2354 46.0568 29.5795 46.0568 23.0526 46.041L11.174 45.9936L19.273 37.8498C23.7355 33.3675 27.4039 29.6902 27.4515 29.6744C27.4833 29.6744 29.0713 31.1895 30.977 33.0676Z" fill="#FDA44A"/>
		</g>
	</symbol>

	
	<symbol id="twitter" viewBox="0 0 60 50">
		<g>
			<path d="M60.0001 5.91923C57.7689 6.92308 55.3914 7.58846 52.9126 7.91154C55.4626 6.35 57.4089 3.89615 58.3239 0.938461C55.9464 2.39231 53.3214 3.41923 50.5239 3.99231C48.2664 1.52692 45.0489 0 41.5389 0C34.7289 0 29.2464 5.66923 29.2464 12.6192C29.2464 13.6192 29.3289 14.5808 29.5314 15.4962C19.3051 14.9846 10.2564 9.95769 4.17762 2.3C3.11637 4.18846 2.49387 6.35 2.49387 8.67692C2.49387 13.0462 4.68762 16.9192 7.95762 19.1615C5.98137 19.1231 4.04262 18.5346 2.40012 17.6077C2.40012 17.6462 2.40012 17.6962 2.40012 17.7462C2.40012 23.8769 6.66387 28.9692 12.2551 30.1423C11.2539 30.4231 10.1626 30.5577 9.03012 30.5577C8.24262 30.5577 7.44762 30.5115 6.70137 30.3423C8.29512 35.3385 12.8176 39.0115 18.1951 39.1308C14.0101 42.4885 8.69637 44.5115 2.94387 44.5115C1.93512 44.5115 0.967622 44.4654 0.00012207 44.3385C5.44887 47.9423 11.9064 50 18.8701 50C41.5051 50 53.8801 30.7692 53.8801 14.1C53.8801 13.5423 53.8614 13.0038 53.8351 12.4692C56.2764 10.6923 58.3276 8.47308 60.0001 5.91923Z" fill="#FDA44A"/>
		</g>
	</symbol>

	
	<symbol id="facebook" viewBox="0 0 25 50">
		<g>
			<path d="M20.4357 8.30208H24.9999V0.352083C24.2125 0.24375 21.5043 0 18.3504 0C11.7697 0 7.26178 4.13958 7.26178 11.7479V18.75H-0.00012207V27.6375H7.26178V50H16.1652V27.6396H23.1334L24.2395 18.7521H16.1631V12.6292C16.1652 10.0604 16.8568 8.30208 20.4357 8.30208Z" fill="#FDA44A"/>
		</g>
	</symbol>

	
	<symbol id="instagram" viewBox="0 0 50 50">
		<g>
			<path d="M49.9608 14.7001C49.8437 12.0434 49.414 10.217 48.7984 8.63435C48.1634 6.95441 47.1864 5.45036 45.9065 4.20004C44.6559 2.93026 43.1417 1.94359 41.4809 1.31862C39.8888 0.703186 38.0715 0.273567 35.4143 0.156433C32.7372 0.0293789 31.8874 0 25.0976 0C18.3079 0 17.458 0.0293789 14.7909 0.146513C12.1337 0.263647 10.3069 0.693647 8.72429 1.3087C7.04365 1.94359 5.53931 2.92034 4.28874 4.20004C3.01872 5.45036 2.03224 6.96433 1.40676 8.62481C0.791213 10.217 0.361511 12.0335 0.244354 14.6902C0.117275 17.3667 0.0878906 18.2164 0.0878906 25.0049C0.0878906 31.7933 0.117275 32.643 0.234432 35.3096C0.351589 37.9663 0.781672 39.7928 1.39722 41.3754C2.03224 43.0554 3.01872 44.5594 4.28874 45.8097C5.53931 47.0795 7.05357 48.0662 8.71437 48.6911C10.3069 49.3066 12.1237 49.7362 14.7813 49.8533C17.4481 49.9708 18.2983 49.9998 25.0881 49.9998C31.8778 49.9998 32.7277 49.9708 35.3948 49.8533C38.052 49.7362 39.8788 49.3066 41.4614 48.6911C44.8223 47.392 47.4795 44.7353 48.7789 41.3754C49.3941 39.7832 49.8242 37.9663 49.9413 35.3096C50.0585 32.643 50.0879 31.7933 50.0879 25.0049C50.0879 18.2164 50.078 17.3667 49.9608 14.7001ZM45.4573 35.1143C45.3497 37.5562 44.9395 38.8748 44.5975 39.7539C43.7572 41.9321 42.0281 43.6609 39.8495 44.501C38.9702 44.8429 37.6418 45.2531 35.209 45.3603C32.5712 45.4778 31.7801 45.5068 25.1075 45.5068C18.4349 45.5068 17.6339 45.4778 15.0057 45.3603C12.5634 45.2531 11.2445 44.8429 10.3653 44.501C9.28107 44.1004 8.29421 43.4655 7.49319 42.6353C6.66279 41.8245 6.02778 40.8477 5.62708 39.7638C5.28515 38.8847 4.87491 37.5562 4.76767 35.1242C4.65014 32.487 4.62113 31.6956 4.62113 25.0243C4.62113 18.353 4.65014 17.5522 4.76767 14.9249C4.87491 12.483 5.28515 11.1644 5.62708 10.2853C6.02778 9.20094 6.66279 8.21465 7.50311 7.4134C8.31367 6.58316 9.29061 5.94827 10.3752 5.54803C11.2544 5.20617 12.5832 4.79601 15.0157 4.68842C17.6534 4.57128 18.4449 4.5419 25.1171 4.5419C31.7996 4.5419 32.5907 4.57128 35.2189 4.68842C37.6613 4.79601 38.9801 5.20617 39.8594 5.54803C40.9436 5.94827 41.9304 6.58316 42.7314 7.4134C43.5618 8.22419 44.1969 9.20094 44.5975 10.2853C44.9395 11.1644 45.3497 12.4925 45.4573 14.9249C45.5745 17.5621 45.6039 18.353 45.6039 25.0243C45.6039 31.6956 45.5745 32.477 45.4573 35.1143Z" fill="#FDA44A"/>
			<path d="M25.0975 12.1606C18.0052 12.1606 12.2507 17.9135 12.2507 25.0049C12.2507 32.0962 18.0052 37.8492 25.0975 37.8492C32.1903 37.8492 37.9444 32.0962 37.9444 25.0049C37.9444 17.9135 32.1903 12.1606 25.0975 12.1606ZM25.0975 33.3366C20.4964 33.3366 16.7641 29.6055 16.7641 25.0049C16.7641 20.4042 20.4964 16.6731 25.0975 16.6731C29.6991 16.6731 33.4309 20.4042 33.4309 25.0049C33.4309 29.6055 29.6991 33.3366 25.0975 33.3366V33.3366Z" fill="#FDA44A"/>
			<path d="M41.452 11.6527C41.452 13.3086 40.109 14.6513 38.4524 14.6513C36.7962 14.6513 35.4532 13.3086 35.4532 11.6527C35.4532 9.99645 36.7962 8.65417 38.4524 8.65417C40.109 8.65417 41.452 9.99645 41.452 11.6527V11.6527Z" fill="#FDA44A"/>
		</g>
	</symbol>

	
	<symbol id="telegram" viewBox="0 0 60 50">
		<g>
			<path d="M59.0735 1.36887C58.3406 0.48605 57.2429 0 55.9822 0C55.2969 0 54.5709 0.142028 53.8248 0.422926L3.03609 19.5191C0.340791 20.5322 -0.0222141 22.0526 0.00113176 22.8687C0.0244776 23.6848 0.474457 25.1826 3.22377 26.0442C3.24025 26.0492 3.25673 26.0542 3.27321 26.0587L13.8081 29.0282L19.5054 45.075C20.2823 47.2627 22.0259 48.6217 24.0565 48.6217C25.3369 48.6217 26.5962 48.0932 27.6985 47.0941L34.2147 41.1844L43.6661 48.6803C43.667 48.6812 43.6684 48.6816 43.6693 48.6825L43.759 48.7538C43.7673 48.7601 43.776 48.7668 43.7842 48.7732C44.8348 49.5757 45.9815 49.9995 47.1016 50H47.1021C49.2906 50 51.0333 48.4043 51.541 45.9353L59.8626 5.46242C60.1968 3.8379 59.9167 2.38426 59.0735 1.36887ZM17.3325 28.4641L37.6575 18.2368L25.0018 31.4823C24.7944 31.6992 24.6475 31.9648 24.5752 32.2538L22.1348 41.9901L17.3325 28.4641ZM25.3167 44.5466C25.2325 44.6228 25.1478 44.6909 25.0631 44.7535L27.3272 35.7215L31.4457 38.9881L25.3167 44.5466ZM56.4171 4.77483L48.0954 45.2482C48.0153 45.6355 47.7594 46.5368 47.1016 46.5368C46.7766 46.5368 46.3683 46.3623 45.9503 46.0453L35.2405 37.5516C35.2392 37.5503 35.2373 37.5489 35.2355 37.548L28.863 32.4936L47.1648 13.3389C47.7507 12.7257 47.8038 11.7865 47.2907 11.1129C46.7771 10.4392 45.8464 10.2273 45.0852 10.6106L14.9837 25.7575L4.30547 22.7483L55.0786 3.658C55.5075 3.49658 55.8069 3.46277 55.9822 3.46277C56.0898 3.46277 56.2811 3.47539 56.3521 3.56151C56.4454 3.67378 56.5645 4.05658 56.4171 4.77483Z" fill="#FDA44A"/>
		</g>
	</symbol>

	<symbol id="m-phone" viewBox="0 0 70 70">
		<g>
			<path d="M35.3844 12.7868C47.1793 12.9274 54.5683 12.036 55.5662 27.9153H69.9494C69.9494 3.31577 52.2863 0 35.01 0C17.7322 0 0.0705566 3.31577 0.0705566 27.9153H14.342C15.4462 11.7334 23.6875 12.6479 35.3844 12.7868Z" fill="#FDA44A"/>
			<path d="M7.20382 35.8236C10.707 35.8236 13.622 36.0783 14.2701 31.8926C14.3573 31.3237 14.4076 30.6788 14.4076 29.9329H14.2415H0C0 36.1593 3.22545 35.8236 7.20382 35.8236Z" fill="#FDA44A"/>
			<path d="M55.659 29.9329H55.5242C55.5242 30.6837 55.5773 31.3303 55.6767 31.8926C56.3601 35.7525 59.2711 35.5127 62.762 35.5127C66.7595 35.5127 69.9999 35.8319 69.9999 29.9329H55.659Z" fill="#FDA44A"/>
			<path d="M48.6323 25.6927V23.2187C48.6323 22.1123 47.5826 22.0428 46.2864 22.0428H44.1692C42.8744 22.0428 41.8247 22.1123 41.8247 23.2187V25.3503V27.0041H26.8479V25.3503V23.2187C26.8479 22.1123 25.7982 22.0428 24.5034 22.0428H22.3849C21.09 22.0428 20.0403 22.1123 20.0403 23.2187V25.6927V27.8525C16.6283 32.1588 5.46384 50.4907 5.05811 52.71L5.06355 67.5194C5.06355 68.887 5.97986 70 7.10584 70H61.5668C62.6928 70 63.6091 68.887 63.6091 67.5194V52.6356C63.2074 50.4808 52.0456 32.1572 48.6323 27.8508V25.6927ZM26.11 54.7028C25.014 54.7028 24.1249 53.6245 24.1249 52.2916C24.1249 50.9587 25.014 49.8804 26.11 49.8804C27.206 49.8804 28.0951 50.9587 28.0951 52.2916C28.0951 53.6245 27.206 54.7028 26.11 54.7028ZM26.11 46.434C25.014 46.434 24.1249 45.3558 24.1249 44.0229C24.1249 42.6899 25.014 41.6117 26.11 41.6117C27.206 41.6117 28.0951 42.6899 28.0951 44.0229C28.0951 45.3558 27.206 46.434 26.11 46.434ZM26.11 38.1669C25.014 38.1669 24.1249 37.0887 24.1249 35.7558C24.1249 34.4245 25.014 33.3446 26.11 33.3446C27.206 33.3446 28.0951 34.4245 28.0951 35.7558C28.0951 37.0887 27.206 38.1669 26.11 38.1669ZM34.2791 54.7028C33.1831 54.7028 32.294 53.6245 32.294 52.2916C32.294 50.9587 33.1831 49.8804 34.2791 49.8804C35.3765 49.8804 36.2642 50.9587 36.2642 52.2916C36.2642 53.6245 35.3765 54.7028 34.2791 54.7028ZM34.2791 46.434C33.1831 46.434 32.294 45.3558 32.294 44.0229C32.294 42.6899 33.1831 41.6117 34.2791 41.6117C35.3765 41.6117 36.2642 42.6899 36.2642 44.0229C36.2642 45.3558 35.3765 46.434 34.2791 46.434ZM34.2791 38.1669C33.1831 38.1669 32.294 37.0887 32.294 35.7558C32.294 34.4245 33.1831 33.3446 34.2791 33.3446C35.3765 33.3446 36.2642 34.4245 36.2642 35.7558C36.2642 37.0887 35.3765 38.1669 34.2791 38.1669ZM42.4483 54.7028C41.3509 54.7028 40.4632 53.6245 40.4632 52.2916C40.4632 50.9587 41.3509 49.8804 42.4483 49.8804C43.5456 49.8804 44.4334 50.9587 44.4334 52.2916C44.4334 53.6245 43.5456 54.7028 42.4483 54.7028ZM42.4483 46.434C41.3509 46.434 40.4632 45.3558 40.4632 44.0229C40.4632 42.6899 41.3509 41.6117 42.4483 41.6117C43.5456 41.6117 44.4334 42.6899 44.4334 44.0229C44.4334 45.3558 43.5456 46.434 42.4483 46.434ZM42.4483 38.1669C41.3509 38.1669 40.4632 37.0887 40.4632 35.7558C40.4632 34.4245 41.3509 33.3446 42.4483 33.3446C43.5456 33.3446 44.4334 34.4245 44.4334 35.7558C44.4334 37.0887 43.5456 38.1669 42.4483 38.1669Z" fill="#FDA44A"/>
		</g>
	</symbol>

	<symbol id="m-menu" viewBox="0 0 70 70">
		<g>
			<path d="M3.35616 0.0719665C2.15068 0.318481 1.0274 1.22237 0.369863 2.45494L0 3.1671V34.9401V66.7131L0.356164 67.4801C0.808219 68.4524 1.54795 69.192 2.52055 69.6439L3.28767 70H35H66.7123L67.4795 69.6439C68.4521 69.192 69.1918 68.4524 69.6438 67.4801L70 66.7131V34.9401V3.1671L69.6301 2.45494C69.1233 1.49627 68.411 0.811511 67.4795 0.373262L66.7123 0.0171855L35.274 0.00349021C17.9863 -0.0102051 3.61644 0.0171855 3.35616 0.0719665ZM61.3014 35.0086V61.3035H35H8.69863V35.0086V8.71368H35H61.3014V35.0086Z" fill="#FDA44A"/>
			<path d="M17.4658 21.8611V26.2436H35.0001H52.5343V21.8611V17.4787H35.0001H17.4658V21.8611Z" fill="#FDA44A"/>
			<path d="M17.4658 35.0086V39.3911H35.0001H52.5343V35.0086V30.6261H35.0001H17.4658V35.0086Z" fill="#FDA44A"/>
			<path d="M17.4658 48.1561V52.5385H35.0001H52.5343V48.1561V43.7736H35.0001H17.4658V48.1561Z" fill="#FDA44A"/>
		</g>
	</symbol>
</svg>