<?xml version="1.0" standalone="no"?>
<!DOCTYPE svg PUBLIC "-//W3C//DTD SVG 20010904//EN"
 "http://www.w3.org/TR/2001/REC-SVG-20010904/DTD/svg10.dtd">
<svg version="1.0" xmlns="http://www.w3.org/2000/svg"
 width="512.000000pt" height="512.000000pt" viewBox="0 0 512.000000 512.000000"
 preserveAspectRatio="xMidYMid meet">
<metadata>
Created by potrace 1.16, written by Peter Selinger 2001-2019
</metadata>
<g transform="translate(0.000000,512.000000) scale(0.100000,-0.100000)"
fill="#000000" stroke="none">
<path d="M2380 5113 c-120 -9 -308 -39 -430 -68 -188 -47 -320 -94 -495 -179
-274 -132 -459 -262 -674 -471 -233 -227 -375 -422 -516 -710 -46 -93 -100
-217 -120 -274 -193 -562 -191 -1161 6 -1716 88 -248 253 -539 424 -750 98
-121 318 -334 437 -423 578 -433 1286 -605 1991 -482 242 42 449 110 682 224
272 134 480 283 692 498 211 213 344 400 478 673 126 255 201 499 241 780 21
147 24 514 6 655 -63 476 -257 934 -549 1295 -445 549 -1087 889 -1787 945
-120 9 -282 11 -386 3z m1770 -2553 c0 -3 -574 -292 -1275 -643 l-1275 -637 0
1280 0 1280 1275 -637 c701 -351 1275 -640 1275 -643z"/>
</g>
</svg>
